<?xml version="1.0" encoding="utf-8"?>
<!-- Generator: Adobe Illustrator 19.0.0, SVG Export Plug-In . SVG Version: 6.00 Build 0)  -->
<svg version="1.1" id="Calque_1" xmlns="http://www.w3.org/2000/svg" xmlns:xlink="http://www.w3.org/1999/xlink" x="0px" y="0px"
	 viewBox="-947 529 24 24" style="enable-background:new -947 529 24 24;" xml:space="preserve">
<style type="text/css">
	.st0{fill:#FFFFFF;}
	.st1{opacity:0.75;fill:#7289DA;}
	.st2{fill:#7289DA;}
</style>
<path class="st0" d="M-947,529h24v24h-24V529z"/>
<g>
	<path class="st1" d="M-932.1,541.7c-0.6,0-1.4,0.1-2.1,0.3c0.3,0.2,0.6,0.5,0.8,0.8c0.4-0.1,0.8-0.1,1.3-0.1c1.6,0,3.3,0.8,3.3,1.1
		v0.8h-4.2v1h5.2v-1.8C-927.8,542.4-930.7,541.7-932.1,541.7z M-932.1,536.4c-1.3,0-2.3,1-2.3,2.3c0,1.3,1,2.3,2.3,2.3
		c1.3,0,2.3-1,2.3-2.3C-929.8,537.5-930.8,536.4-932.1,536.4z M-932.1,540c-0.7,0-1.3-0.6-1.3-1.3c0-0.7,0.6-1.3,1.3-1.3
		c0.7,0,1.3,0.6,1.3,1.3C-930.8,539.4-931.4,540-932.1,540z"/>
	<path class="st2" d="M-933.7,543.6c0-0.1,0-0.1-0.1-0.2c-0.1-0.1-0.1-0.3-0.3-0.4c-0.2-0.3-0.6-0.5-1-0.7c-0.1,0-0.2-0.1-0.3-0.1
		c-0.1,0-0.2-0.1-0.3-0.1c-0.3-0.1-0.6-0.2-0.9-0.3c-0.1,0-0.2-0.1-0.4-0.1c-0.1,0-0.2,0-0.3,0c-0.1,0-0.1,0-0.2,0
		c-0.2,0-0.4,0-0.6,0c-0.2,0-0.4,0-0.6,0c-0.1,0-0.1,0-0.2,0c-0.1,0-0.2,0-0.3,0c-0.1,0-0.2,0-0.4,0.1c-0.3,0.1-0.5,0.1-0.8,0.2
		c-0.1,0-0.3,0.1-0.4,0.1c0,0,0,0-0.1,0c-0.1,0-0.2,0.1-0.3,0.1c0,0,0,0,0,0c-0.4,0.2-0.7,0.4-1,0.7c-0.2,0.2-0.3,0.4-0.3,0.6
		c0,0.1,0,0.1,0,0.2v1.8h8.5v-1.8C-933.7,543.7-933.7,543.6-933.7,543.6z M-934.7,544.6h-6.5v-0.8c0-0.1,0.1-0.2,0.3-0.4
		c0.3-0.2,0.7-0.4,1.2-0.5c0.2-0.1,0.5-0.1,0.8-0.2c0.1,0,0.1,0,0.2,0c0.3,0,0.5-0.1,0.8-0.1c1.6,0,3.3,0.8,3.3,1.1V544.6z
		 M-937.9,536.4c-1.3,0-2.3,1-2.3,2.3c0,1.3,1,2.3,2.3,2.3c1.3,0,2.3-1,2.3-2.3C-935.7,537.5-936.7,536.4-937.9,536.4z M-937.9,540
		c-0.7,0-1.3-0.6-1.3-1.3c0-0.7,0.6-1.3,1.3-1.3c0.7,0,1.3,0.6,1.3,1.3C-936.6,539.4-937.2,540-937.9,540z"/>
</g>
</svg>
