<?xml version="1.0" encoding="utf-8"?>
<!-- Generator: Adobe Illustrator 18.0.0, SVG Export Plug-In . SVG Version: 6.00 Build 0)  -->
<!DOCTYPE svg PUBLIC "-//W3C//DTD SVG 1.1//EN" "http://www.w3.org/Graphics/SVG/1.1/DTD/svg11.dtd">
<svg version="1.1" id="Calque_1" xmlns="http://www.w3.org/2000/svg" xmlns:xlink="http://www.w3.org/1999/xlink" x="0px" y="0px"
	 viewBox="0 0 24 24" enable-background="new 0 0 24 24" xml:space="preserve">
<path fill="none" d="M0,0h24v24H0V0z"/>
<path fill="#FFFFFF" d="M20.9,10.6c-0.8-5.1-6.1-8.9-11.7-7.1c-2.7,0.9-4.8,3-5.7,5.7c-1.9,5.6,1.9,10.9,7.1,11.7
	c1.7,0.3,3.4,0,4.9-0.6c1-0.4,1.9-1,2.7-1.7l-1.4-1.5c-0.6,0.6-1.3,1-2.2,1.4c-1.3,0.5-2.7,0.7-4.2,0.3c-2.6-0.6-4.7-2.8-5.2-5.5
	c-0.9-4.9,3.3-9.1,8.2-8.2c2.8,0.5,4.9,2.6,5.5,5.3c0.2,1.2,0.2,2.3-0.1,3.3c-0.1,0.5-0.6,0.8-1.1,0.8c-0.6,0-1.1-0.5-1.1-1.1V7.7
	h-2v0.5C13.8,7.7,13,7.4,12,7.4c-2.5,0-4.6,2.1-4.6,4.6s2.1,4.6,4.6,4.6c1.2,0,2.4-0.5,3.2-1.3c0.6,0.8,1.5,1.3,2.5,1.3
	c1.4,0,2.6-0.9,3-2.3C21,13.2,21.1,11.9,20.9,10.6z M12,14.6c-1.4,0-2.6-1.2-2.6-2.6s1.2-2.6,2.6-2.6s2.6,1.2,2.6,2.6
	S13.4,14.6,12,14.6z"/>
</svg>
