<?xml version="1.0" encoding="utf-8"?>
<!-- Generator: Adobe Illustrator 19.0.0, SVG Export Plug-In . SVG Version: 6.00 Build 0)  -->
<svg version="1.1" id="Calque_1" xmlns="http://www.w3.org/2000/svg" xmlns:xlink="http://www.w3.org/1999/xlink" x="0px" y="0px"
	 viewBox="-947 529 24 24" style="enable-background:new -947 529 24 24;" xml:space="preserve">
<style type="text/css">
	.st0{fill:none;}
	.st1{fill:#FFFFFF;}
</style>
<path class="st0" d="M-947,529h24v24h-24V529z"/>
<path class="st1" d="M-938,534c-1.7,0-3,1.3-3,3s1.3,3,3,3s3-1.3,3-3S-936.3,534-938,534z M-938,542c-2.3,0-7,1.2-7,3.5v2.5h14v-2.5
	C-931,543.2-935.7,542-938,542z M-925,534v2h-8.1c-0.2-0.7-0.5-1.4-0.9-2H-925z M-931,542h6v2h-4.3
	C-929.7,543.2-930.3,542.5-931,542z M-933.1,538h8.1v2h-9C-933.6,539.4-933.3,538.7-933.1,538z"/>
</svg>
