<?xml version="1.0" encoding="utf-8"?>
<!-- Generator: Adobe Illustrator 19.0.0, SVG Export Plug-In . SVG Version: 6.00 Build 0)  -->
<svg version="1.1" id="Calque_1" xmlns="http://www.w3.org/2000/svg" xmlns:xlink="http://www.w3.org/1999/xlink" x="0px" y="0px"
	 viewBox="-947 529 24 24" style="enable-background:new -947 529 24 24;" xml:space="preserve">
<style type="text/css">
	.st0{fill:#FFFFFF;}
	.st1{opacity:0.75;fill:#7289DA;stroke:#7289DA;stroke-width:0.4;stroke-miterlimit:10;}
	.st2{fill:#7289DA;stroke:#7289DA;stroke-width:0.4;stroke-miterlimit:10;}
</style>
<path class="st0" d="M-947,529h24v24h-24V529z"/>
<path class="st1" d="M-932.2,541.6c-0.6,0-1.3,0.1-2.1,0.3c0.3,0.2,0.6,0.5,0.8,0.8c0.4-0.1,0.8-0.1,1.2-0.1c1.5,0,3.2,0.8,3.2,1.1
	v0.8h-4.1v0.9h5v-1.7C-928.1,542.3-930.8,541.6-932.2,541.6z M-932.2,536.6c-1.2,0-2.2,1-2.2,2.2c0,1.2,1,2.2,2.2,2.2
	c1.2,0,2.2-1,2.2-2.2C-929.9,537.6-930.9,536.6-932.2,536.6z M-932.2,540.1c-0.7,0-1.3-0.6-1.3-1.3c0-0.7,0.6-1.3,1.3-1.3
	c0.7,0,1.3,0.6,1.3,1.3C-930.9,539.5-931.5,540.1-932.2,540.1z"/>
<path class="st2" d="M-933.8,543.5c0-0.1,0-0.1-0.1-0.2c-0.1-0.1-0.1-0.2-0.2-0.4c-0.2-0.3-0.6-0.5-0.9-0.7c-0.1,0-0.2-0.1-0.3-0.1
	c-0.1,0-0.2-0.1-0.3-0.1c-0.3-0.1-0.6-0.2-0.9-0.2c-0.1,0-0.2-0.1-0.4-0.1c-0.1,0-0.2,0-0.3,0c-0.1,0-0.1,0-0.2,0
	c-0.2,0-0.4,0-0.6,0s-0.4,0-0.6,0c-0.1,0-0.1,0-0.2,0c-0.1,0-0.2,0-0.3,0c-0.1,0-0.2,0-0.4,0.1c-0.3,0.1-0.5,0.1-0.8,0.2
	c-0.1,0-0.2,0.1-0.4,0.1c0,0,0,0-0.1,0c-0.1,0-0.2,0.1-0.3,0.1c0,0,0,0,0,0c-0.4,0.2-0.7,0.4-0.9,0.6c-0.2,0.2-0.3,0.4-0.3,0.6
	c0,0.1,0,0.1,0,0.2v1.7h8.2v-1.7C-933.7,543.6-933.7,543.5-933.8,543.5z M-934.7,544.5h-6.3v-0.8c0-0.1,0.1-0.2,0.3-0.3
	c0.3-0.2,0.7-0.4,1.1-0.5c0.2-0.1,0.5-0.1,0.7-0.2c0.1,0,0.1,0,0.2,0c0.2,0,0.5-0.1,0.8-0.1c1.5,0,3.2,0.8,3.2,1.1V544.5z
	 M-937.8,536.6c-1.2,0-2.2,1-2.2,2.2c0,1.2,1,2.2,2.2,2.2c1.2,0,2.2-1,2.2-2.2C-935.6,537.6-936.6,536.6-937.8,536.6z M-937.8,540.1
	c-0.7,0-1.3-0.6-1.3-1.3c0-0.7,0.6-1.3,1.3-1.3c0.7,0,1.3,0.6,1.3,1.3C-936.6,539.5-937.1,540.1-937.8,540.1z"/>
</svg>
