<?xml version="1.0" encoding="utf-8"?>
<!-- Generator: Adobe Illustrator 19.0.0, SVG Export Plug-In . SVG Version: 6.00 Build 0)  -->
<svg version="1.1" id="Calque_1" xmlns="http://www.w3.org/2000/svg" xmlns:xlink="http://www.w3.org/1999/xlink" x="0px" y="0px"
	 viewBox="-947 529 24 24" style="enable-background:new -947 529 24 24;" xml:space="preserve">
<style type="text/css">
	.st0{fill:#FFFFFF;}
	.st1{fill:#7289DA;}
	.st2{fill:#95A7E3;}
</style>
<path class="st0" d="M-947,529h24v24h-24V529z"/>
<g>
	<polygon class="st1" points="-938.7,540.5 -938.7,540.5 -938.7,540.5 	"/>
	<polygon class="st1" points="-938.7,537.2 -938.7,537.2 -938.7,537.2 	"/>
	<polygon class="st1" points="-941.3,542.6 -941.3,542.6 -941.3,542.6 	"/>
	<polygon class="st1" points="-935.4,540.5 -935.4,540.5 -935.4,540.5 	"/>
	<polygon class="st1" points="-935.4,537.2 -935.4,537.2 -935.4,537.2 	"/>
	<path class="st1" d="M-932.7,542.6L-932.7,542.6c-0.2-0.4-0.5-0.7-0.9-0.9l0,0l0,0c-0.5-0.3-1.1-0.6-1.7-0.7l0,0
		c-0.2,0-0.4-0.1-0.6-0.1c0.2-0.1,0.4-0.2,0.5-0.4c0.4-0.4,0.7-1,0.7-1.7v0v0v0c0-0.6-0.3-1.2-0.7-1.7c-0.4-0.4-1-0.7-1.7-0.7h0h0h0
		c-0.6,0-1.2,0.3-1.7,0.7c-0.4,0.4-0.7,1-0.7,1.7v0v0v0c0,0.6,0.3,1.2,0.7,1.7c0.2,0.2,0.3,0.3,0.5,0.4c-0.5,0.1-1,0.2-1.5,0.4l0,0
		l0,0c-0.4,0.2-0.9,0.4-1.2,0.7l0,0l0,0c-0.2,0.2-0.3,0.4-0.5,0.6c-0.1,0.2-0.2,0.5-0.2,0.8v0v0v2.1h9v-2.1v0v0
		C-932.5,543.1-932.6,542.9-932.7,542.6z M-940,543.4L-940,543.4l0-0.1l0,0c0-0.1,0.2-0.2,0.4-0.3l0,0l0,0c0.3-0.2,0.8-0.4,1.3-0.5
		l0,0l0,0c0.5-0.1,1-0.2,1.3-0.2h0h0h0l0,0c0.5,0,1.4,0.1,2.1,0.4l0,0l0,0c0.3,0.1,0.6,0.3,0.8,0.4l0,0l0,0c0.1,0.1,0.1,0.1,0.1,0.2
		l0,0.1v0.6h-6V543.4z M-937,538c0.5,0,0.9,0.4,0.9,0.9c0,0.5-0.4,0.9-0.9,0.9c-0.5,0-0.9-0.4-0.9-0.9
		C-937.9,538.4-937.5,538-937,538z"/>
</g>
<g>
	<polygon class="st2" points="-934,537.2 -934,537.2 -934,537.2 	"/>
	<path class="st2" d="M-928,542.6L-928,542.6L-928,542.6c-0.2-0.4-0.5-0.7-0.9-0.9l0,0c-0.5-0.3-1.1-0.6-1.7-0.7l0,0l0,0
		c-0.2,0-0.4-0.1-0.5-0.1c0.2-0.1,0.4-0.2,0.5-0.4l0,0l0,0c0.4-0.4,0.7-1,0.7-1.7s-0.3-1.2-0.7-1.7l0,0l0,0c-0.4-0.4-1-0.7-1.7-0.7
		c0,0,0,0,0,0c-0.6,0-1.2,0.3-1.7,0.7c-0.2,0.2-0.4,0.4-0.5,0.7c-0.1,0.3-0.2,0.6-0.2,1c0,0.3,0.1,0.7,0.2,1
		c0.1,0.3,0.3,0.5,0.5,0.7c0.2,0.2,0.3,0.3,0.5,0.4c-0.1,0-0.2,0-0.3,0.1l-0.3,0.1l0.3,0.2c0.1,0.1,0.2,0.1,0.4,0.2l0,0l0,0
		c0.3,0.2,0.6,0.5,0.9,0.8l0,0.1h0.1h0l0.1,0c0,0,0,0,0,0c0.5,0,1.4,0.1,2.1,0.4l0,0l0,0c0.3,0.1,0.6,0.3,0.8,0.4l0,0
		c0.1,0.1,0.1,0.1,0.1,0.2l0,0l0,0l0,0.1v0.6h-2.9v1.5h4.4v-2.1C-927.8,543.1-927.9,542.9-928,542.6z M-932.3,538
		c0.5,0,0.9,0.4,0.9,0.9c0,0.5-0.4,0.9-0.9,0.9c-0.5,0-0.9-0.4-0.9-0.9C-933.1,538.4-932.8,538-932.3,538z"/>
</g>
</svg>
