<?xml version="1.0" encoding="utf-8"?>
<!-- Generator: Adobe Illustrator 19.0.0, SVG Export Plug-In . SVG Version: 6.00 Build 0)  -->
<svg version="1.1" id="Calque_1" xmlns="http://www.w3.org/2000/svg" xmlns:xlink="http://www.w3.org/1999/xlink" x="0px" y="0px"
	 viewBox="-947 529 24 24" style="enable-background:new -947 529 24 24;" xml:space="preserve">
<style type="text/css">
	.st0{fill:#7289DA;}
	.st1{fill:#FFFFFF;}
	.st2{opacity:0.5;fill:#FFFFFF;}
</style>
<path class="st0" d="M-947,529h24v24h-24V529z"/>
<path class="st1" d="M-937.7,536.2c-1.1,0-2,0.9-2,2s0.9,2,2,2s2-0.9,2-2S-936.6,536.2-937.7,536.2z M-937.7,541.7
	c-1.6,0-4.8,0.8-4.8,2.4v1.7h9.5v-1.7C-933,542.5-936.1,541.7-937.7,541.7z"/>
<path class="st2" d="M-932.3,536.2c-1.1,0-2,0.9-2,2s0.9,2,2,2s2-0.9,2-2S-931.1,536.2-932.3,536.2z M-932.3,541.7
	c-0.2,0-0.4,0-0.7,0c0.8,0.6,1.3,1.3,1.3,2.4v1.7h4.1v-1.7C-927.5,542.5-930.7,541.7-932.3,541.7z"/>
</svg>
