<?xml version="1.0" encoding="utf-8"?>
<!-- Generator: Adobe Illustrator 19.0.0, SVG Export Plug-In . SVG Version: 6.00 Build 0)  -->
<svg version="1.1" id="Calque_1" xmlns="http://www.w3.org/2000/svg" xmlns:xlink="http://www.w3.org/1999/xlink" x="0px" y="0px"
	 viewBox="-947 529 24 24" style="enable-background:new -947 529 24 24;" xml:space="preserve">
<style type="text/css">
	.st0{fill:#FFFFFF;}
	.st1{opacity:0.75;fill:#7289DA;}
	.st2{fill:#7289DA;}
</style>
<path class="st0" d="M-947,529h24v24h-24V529z"/>
<g>
	<path class="st1" d="M-931.1,541.9c-0.8,0-1.8,0.1-2.8,0.5c0.5,0.3,0.8,0.6,1.1,1c0.6-0.1,1.1-0.2,1.7-0.2c2.1,0,4.3,1,4.3,1.5v1.1
		h-5.6v1.3h6.9v-2.4C-925.5,542.8-929.2,541.9-931.1,541.9z M-931.1,534.9c-1.7,0-3,1.4-3,3c0,1.7,1.4,3,3,3s3-1.4,3-3
		C-928.1,536.3-929.4,534.9-931.1,534.9z M-931.1,539.7c-1,0-1.7-0.8-1.7-1.7c0-1,0.8-1.7,1.7-1.7s1.7,0.8,1.7,1.7
		C-929.4,538.9-930.1,539.7-931.1,539.7z"/>
	<path class="st2" d="M-933.3,544.4c0-0.1,0-0.2-0.1-0.3c-0.1-0.2-0.2-0.3-0.3-0.5c-0.3-0.4-0.8-0.7-1.3-0.9
		c-0.1-0.1-0.3-0.1-0.4-0.2c-0.1-0.1-0.3-0.1-0.4-0.2c-0.4-0.1-0.8-0.3-1.3-0.3c-0.2,0-0.3-0.1-0.5-0.1c-0.1,0-0.3,0-0.4,0
		c-0.1,0-0.1,0-0.2,0c-0.3,0-0.6,0-0.8,0s-0.5,0-0.8,0c-0.1,0-0.1,0-0.2,0c-0.1,0-0.2,0-0.4,0c-0.2,0-0.3,0.1-0.5,0.1
		c-0.4,0.1-0.7,0.2-1.1,0.3c-0.2,0-0.3,0.1-0.5,0.2c0,0-0.1,0-0.1,0c-0.1,0-0.2,0.1-0.4,0.1c0,0,0,0,0,0c-0.5,0.2-1,0.5-1.3,0.9
		c-0.2,0.2-0.4,0.5-0.4,0.8c0,0.1,0,0.2,0,0.3v2.4h11.3v-2.4C-933.3,544.6-933.3,544.5-933.3,544.4z M-934.6,545.8h-8.7v-1.1
		c0-0.1,0.2-0.3,0.4-0.5c0.4-0.2,0.9-0.5,1.6-0.7c0.3-0.1,0.7-0.2,1-0.2c0.1,0,0.2,0,0.3,0c0.3-0.1,0.7-0.1,1-0.1
		c2.1,0,4.3,1,4.3,1.5V545.8z M-938.9,534.9c-1.7,0-3,1.4-3,3c0,1.7,1.4,3,3,3s3-1.4,3-3C-935.9,536.3-937.2,534.9-938.9,534.9z
		 M-938.9,539.7c-1,0-1.7-0.8-1.7-1.7c0-1,0.8-1.7,1.7-1.7s1.7,0.8,1.7,1.7C-937.2,538.9-938,539.7-938.9,539.7z"/>
</g>
</svg>
