<?xml version="1.0" encoding="utf-8"?>
<!-- Generator: Adobe Illustrator 19.0.0, SVG Export Plug-In . SVG Version: 6.00 Build 0)  -->
<svg version="1.1" id="Calque_1" xmlns="http://www.w3.org/2000/svg" xmlns:xlink="http://www.w3.org/1999/xlink" x="0px" y="0px"
	 viewBox="-954 535 10 12" style="enable-background:new -954 535 10 12;" xml:space="preserve">
<style type="text/css">
	.st0{fill:#FFFFFF;}
</style>
<path class="st0" d="M-945,536c0-0.5-0.4-1-1-1h-7c-0.6,0-1,0.4-1,1v9c0,0.5,0.4,1,1,1h7c0.6,0,1-0.4,1-1V536z M-946,536.6v8
	c0,0.2-0.1,0.3-0.3,0.3h-6.4c-0.2,0-0.3-0.1-0.3-0.3v-8.4c0-0.2,0.1-0.3,0.3-0.3h6.4c0.2,0,0.3,0.1,0.3,0.3V536.6z M-947.3,537h-4.4
	c-0.2,0-0.3,0.2-0.3,0.5s0.1,0.5,0.3,0.5h4.4c0.2,0,0.3-0.2,0.3-0.5S-947.1,537-947.3,537z M-947.3,541h-4.4c-0.2,0-0.3,0.2-0.3,0.5
	s0.1,0.5,0.3,0.5h4.4c0.2,0,0.3-0.2,0.3-0.5S-947.1,541-947.3,541z M-947.3,543h-4.4c-0.2,0-0.3,0.2-0.3,0.5s0.1,0.5,0.3,0.5h4.4
	c0.2,0,0.3-0.2,0.3-0.5S-947.1,543-947.3,543z M-947.3,539h-4.4c-0.2,0-0.3,0.2-0.3,0.5s0.1,0.5,0.3,0.5h4.4c0.2,0,0.3-0.2,0.3-0.5
	S-947.1,539-947.3,539z"/>
</svg>
