<?xml version="1.0" encoding="utf-8"?>
<!-- Generator: Adobe Illustrator 19.0.0, SVG Export Plug-In . SVG Version: 6.00 Build 0)  -->
<svg version="1.1" id="Calque_1" xmlns="http://www.w3.org/2000/svg" xmlns:xlink="http://www.w3.org/1999/xlink" x="0px" y="0px"
	 viewBox="-902 514 114 54" style="enable-background:new -902 514 114 54;" xml:space="preserve">
<style type="text/css">
	.st0{display:none;}
	.st1{display:inline;fill:#424549;}
	.st2{display:inline;fill:#ABACAE;}
	.st3{display:inline;fill:none;stroke:#1E1F21;stroke-width:2;stroke-linecap:round;stroke-linejoin:round;}
	.st4{display:inline;}
	.st5{filter:url(#Adobe_OpacityMaskFilter);}
	.st6{fill:#FFFFFF;}
	.st7{mask:url(#b);fill:#ABACAE;}
	.st8{filter:url(#Adobe_OpacityMaskFilter_1_);}
	.st9{mask:url(#d);fill:none;stroke:#1E1F21;stroke-width:2;stroke-linecap:round;stroke-linejoin:round;}
	.st10{display:inline;fill:none;stroke:#C5D3FF;stroke-linecap:round;stroke-linejoin:round;}
	.st11{display:inline;fill:none;stroke:#7187DD;stroke-linecap:round;stroke-linejoin:round;}
	.st12{display:inline;fill:none;stroke:#F4D862;stroke-linecap:round;stroke-linejoin:round;}
	.st13{display:inline;fill:none;stroke:#43B581;stroke-linecap:round;stroke-linejoin:round;}
	.st14{display:inline;fill:#43B581;}
	.st15{display:inline;fill:#FFFFFF;}
	.st16{display:inline;fill:none;}
	.st17{display:inline;fill:none;stroke:#DBDBDB;stroke-width:2;stroke-linecap:round;stroke-linejoin:round;}
	.st18{fill:none;stroke:#DBDBDB;stroke-width:2;stroke-linecap:round;stroke-linejoin:round;}
	.st19{opacity:0.62;}
	.st20{fill:none;stroke:#FFFFFF;stroke-width:2;stroke-linecap:round;stroke-linejoin:round;}
</style>
<g class="st0">
	<path class="st1" d="M-815,541c0,13.8-11.2,25-25,25c-10.4,0-19.2-6.3-23-15.3c-1.3-3-2-6.3-2-9.7c0-1.2,0.1-2.3,0.2-3.5
		c1.7-12.2,12.1-21.5,24.8-21.5C-826.2,516-815,527.2-815,541"/>
	<path class="st2" d="M-840,552.3c-7.2,0-13-5.8-13-13v-4c0-7.2,5.8-13,13-13c7.1,0,13,5.8,13,13v4
		C-827,546.4-832.9,552.3-840,552.3"/>
	<path class="st3" d="M-840,552.3c-7.2,0-13-5.8-13-13v-4c0-7.2,5.8-13,13-13c7.1,0,13,5.8,13,13v4
		C-827,546.4-832.9,552.3-840,552.3z"/>
	<g transform="translate(44 42.365)" class="st4">
		<defs>
			<filter id="Adobe_OpacityMaskFilter" filterUnits="userSpaceOnUse" x="-902" y="514.6" width="36" height="13">
				<feColorMatrix  type="matrix" values="1 0 0 0 0  0 1 0 0 0  0 0 1 0 0  0 0 0 1 0"/>
			</filter>
		</defs>
		<mask maskUnits="userSpaceOnUse" x="-902" y="514.6" width="36" height="13" id="b">
			<g class="st5">
				<path id="a" class="st6" d="M-902,516.9c4.5,3.5,10.9,5.8,18,5.8c7.1,0,13.5-2.2,18-5.8v-2.2h-36
					C-902,514.6-902,516.9-902,516.9z"/>
			</g>
		</mask>
		<path class="st7" d="M-902,527.6v-3.7c0-5.1,4.5-9.3,10-9.3h16c5.5,0,10,4.2,10,9.3v3.7H-902z"/>
	</g>
	<g transform="translate(43 40.365)" class="st4">
		<defs>
			<filter id="Adobe_OpacityMaskFilter_1_" filterUnits="userSpaceOnUse" x="-902" y="514.6" width="38" height="15.4">
				<feColorMatrix  type="matrix" values="1 0 0 0 0  0 1 0 0 0  0 0 1 0 0  0 0 0 1 0"/>
			</filter>
		</defs>
		<mask maskUnits="userSpaceOnUse" x="-902" y="514.6" width="38" height="15.4" id="d">
			<g class="st8">
				<path id="c" class="st6" d="M-902,517.3c4.5,5.2,10.9,8.4,18,8.4c7.1,0,13.5-3.2,18-8.4V514h-36V517.3z"/>
			</g>
		</mask>
		<path class="st9" d="M-901,529v-3.8c0-5.3,4.5-9.5,10-9.5h16c5.5,0,10,4.3,10,9.5v3.8C-865,529-901,529-901,529z"/>
	</g>
	<path class="st3" d="M-864.5,546.2c-0.4-1.7-0.5-3.4-0.5-5.2c0-1.2,0.1-2.3,0.2-3.5c1.7-12.2,12.1-21.5,24.8-21.5
		c13.8,0,25,11.2,25,25s-11.2,25-25,25c-8.7,0-16.4-4.5-20.9-11.3 M-863,550.7c-0.1-0.3-0.3-0.6-0.4-0.9"/>
	<path class="st10" d="M-877.4,551.6l-0.8,0.8 M-881.6,555.8l-0.8,0.8 M-877.4,556.6l-0.8-0.8 M-881.6,552.5l-0.8-0.8"/>
	<path class="st11" d="M-796.4,537.6c0,1.4-1.1,2.5-2.5,2.5s-2.5-1.1-2.5-2.5c0-1.4,1.1-2.5,2.5-2.5S-796.4,536.2-796.4,537.6z"/>
	<path class="st12" d="M-886.1,537.2c0,1.1-0.9,2-2,2c-1.1,0-2-0.9-2-2s0.9-2,2-2C-886.9,535.2-886.1,536.1-886.1,537.2z"/>
	<path class="st13" d="M-898,544.6v5 M-895.5,547.1h-5"/>
	<path class="st12" d="M-791.9,524.6v4 M-789.9,526.6h-4"/>
	<path class="st14" d="M-815,526c0,5.5-4.5,10-10,10s-10-4.5-10-10c0-5.5,4.5-10,10-10S-815,520.5-815,526"/>
	<path class="st3" d="M-835,526c0-1.4,0.3-2.7,0.8-3.9c1.5-3.6,5.1-6.1,9.2-6.1c5.5,0,10,4.5,10,10c0,5.5-4.5,10-10,10
		c-4.1,0-7.6-2.4-9.1-5.9"/>
	<path class="st15" d="M-823.5,524.5v-3c0-0.3-0.2-0.5-0.5-0.5h-2c-0.3,0-0.5,0.2-0.5,0.5v3h-3c-0.3,0-0.5,0.2-0.5,0.5v2
		c0,0.3,0.2,0.5,0.5,0.5h3v3c0,0.3,0.2,0.5,0.5,0.5h2c0.3,0,0.5-0.2,0.5-0.5v-3h3c0.3,0,0.5-0.2,0.5-0.5v-2c0-0.3-0.2-0.5-0.5-0.5
		C-820.5,524.5-823.5,524.5-823.5,524.5z"/>
	<path class="st16" d="M-902,514h114v54h-114V514z"/>
</g>
<g class="st0">
	<line class="st17" x1="-856.3" y1="531.8" x2="-833.7" y2="531.8"/>
	<g class="st4">
		<path class="st18" d="M-854.1,531.8v2.1c0,2.3,0.6,4.2,3.9,4.2c2.8,0,3.9-1.9,3.9-4.2v-2.1H-854.1z"/>
		<path class="st18" d="M-835.9,531.8v2.1c0,2.3-0.6,4.2-3.9,4.2c-2.8,0-3.9-1.9-3.9-4.2v-2.1H-835.9z"/>
	</g>
</g>
<g class="st19">
	<path class="st20" d="M-854.3,546.4c-1.6-2-2.5-4.5-2.5-7.3c0-6.5,5.3-11.8,11.8-11.8s11.8,5.3,11.8,11.8c0,6.5-5.3,11.8-11.8,11.8
		c-1.2,0-2.3-0.2-3.4-0.5"/>
	<path class="st20" d="M-831.7,534.9c-0.1-7.2-2.3-11.8-13.3-11.8c-11,0-13.1,4.7-13.3,11.8"/>
	<path class="st20" d="M-851.4,553.3c-3.3,1.5-5.9,4.1-7.5,7.3"/>
	<path class="st20" d="M-831.1,560.6c-1.5-3-3.9-5.5-6.9-7"/>
	<path class="st20" d="M-856.8,539.1v-4.4c-2.9,0-5.3,2.4-5.3,5.3c0,1,0.3,1.9,0.8,2.7"/>
	<path class="st20" d="M-833.2,545.4c2.9,0,5.3-2.4,5.3-5.3s-2.4-5.3-5.3-5.3V545.4z"/>
	<path class="st20" d="M-848.6,544.5c-0.5,0-0.8,0.5-0.7,0.9c0.6,1.8,2.3,3.1,4.3,3.1s3.7-1.3,4.3-3.1c0.2-0.4-0.2-0.9-0.7-0.9
		H-848.6z"/>
	<g>
		<circle class="st6" cx="-849.9" cy="538.6" r="2.2"/>
		<circle class="st6" cx="-840.1" cy="538.6" r="2.2"/>
	</g>
	<path class="st20" d="M-858.8,543v1.9c0,2.1,1.7,3.9,3.9,3.9h3.9"/>
	<g>
		<circle class="st20" cx="-822.2" cy="528.8" r="7.6"/>
		<line class="st20" x1="-825.5" y1="528.8" x2="-819" y2="528.8"/>
		<line class="st20" x1="-822.2" y1="525.5" x2="-822.2" y2="532"/>
	</g>
</g>
</svg>
