<?xml version="1.0" encoding="utf-8"?>
<!-- Generator: Adobe Illustrator 19.0.0, SVG Export Plug-In . SVG Version: 6.00 Build 0)  -->
<svg version="1.1" id="Calque_1" xmlns="http://www.w3.org/2000/svg" xmlns:xlink="http://www.w3.org/1999/xlink" x="0px" y="0px"
	 viewBox="-947 529 24 24" style="enable-background:new -947 529 24 24;" xml:space="preserve">
<style type="text/css">
	.st0{fill:none;}
	.st1{fill:#FFFFFF;}
</style>
<path class="st0" d="M-947,529h24v24h-24V529z"/>
<g id="XMLID_2_">
	<path id="XMLID_65_" class="st1" d="M-928,532h-14c-1.1,0-2,0.9-2,2v14c0,1.1,0.9,2,2,2h14c1.1,0,2-0.9,2-2v-14
		C-926,532.9-926.9,532-928,532z M-928,548h-14v-14h14V548z"/>
	<rect id="XMLID_64_" x="-936" y="544" class="st1" width="2" height="2"/>
	<rect id="XMLID_63_" x="-936" y="544" class="st1" width="2" height="2"/>
	<path id="XMLID_62_" class="st1" d="M-931.7,538.7c-0.2-1.3-1.2-2.3-2.5-2.6c-1.6-0.4-3.1,0.4-3.8,1.7c0,0,1.8,0.9,1.8,0.9
		s0.1-0.1,0.2-0.2c0.2-0.3,0.6-0.5,1.1-0.5c0.8,0,1.3,0.6,1.3,1.3c0,0.7-0.6,1.3-1.3,1.4l-1,0v2.5h2v-0.6
		C-932.5,542.1-931.4,540.5-931.7,538.7z"/>
</g>
</svg>
