<?xml version="1.0" encoding="utf-8"?>
<!-- Generator: Adobe Illustrator 19.0.0, SVG Export Plug-In . SVG Version: 6.00 Build 0)  -->
<svg version="1.1" id="Calque_1" xmlns="http://www.w3.org/2000/svg" xmlns:xlink="http://www.w3.org/1999/xlink" x="0px" y="0px"
	 viewBox="-947 529 24 24" style="enable-background:new -947 529 24 24;" xml:space="preserve">
<style type="text/css">
	.st0{fill:none;}
	.st1{fill:#FFFFFF;}
</style>
<path class="st0" d="M-947,529h24v24h-24V529z"/>
<g id="XMLID_4_">
	<path id="XMLID_49_" class="st1" d="M-931.7,532c-6.8,0-12.3,5.5-12.3,12.3v3.7c0,1.1,0.9,2,2,2h3.7c2.4,0,4.6-0.7,6.4-1.8
		c-0.8-0.7-1.2-1.8-0.8-3c0.3-0.9,1-1.6,1.8-1.8c0.3-0.1,0.6-0.1,0.9-0.1c0.8,0,1.6,0.4,2.1,1c1.2-1.9,1.8-4.1,1.8-6.4
		C-926,534.6-928.6,532-931.7,532z M-928.7,541.4c-0.4-0.1-0.8-0.2-1.3-0.2c-0.5,0-1,0.1-1.5,0.2c-1.5,0.5-2.7,1.7-3.2,3.2
		c-0.3,0.9-0.3,1.9,0,2.7c-1.2,0.4-2.4,0.7-3.7,0.7h-3.7v-3.7c0-5.7,4.6-10.3,10.3-10.3c0.7,0,1.3,0.2,1.8,0.5l-9.8,9.8l1.4,1.4
		l9.8-9.8c0.3,0.5,0.5,1.2,0.5,1.8C-928,539-928.2,540.2-928.7,541.4z"/>
</g>
</svg>
