<?xml version="1.0" encoding="utf-8"?>
<!-- Generator: Adobe Illustrator 19.0.0, SVG Export Plug-In . SVG Version: 6.00 Build 0)  -->
<svg version="1.1" id="Calque_1" xmlns="http://www.w3.org/2000/svg" xmlns:xlink="http://www.w3.org/1999/xlink" x="0px" y="0px"
	 viewBox="-387 289 24 24" style="enable-background:new -387 289 24 24;" xml:space="preserve">
<style type="text/css">
	.st0{fill:none;}
	.st1{fill:#FFFFFF;}
</style>
<path class="st0" d="M-387,289h24v24h-24V289z"/>
<g>
	<g id="XMLID_35_">
		<path id="XMLID_48_" class="st1" d="M-375,292c-5,0-9,4-9,9s4,9,9,9s9-4,9-9S-370,292-375,292z M-375,308c-3.9,0-7-3.1-7-7
			s3.1-7,7-7s7,3.1,7,7S-371.1,308-375,308z"/>
	</g>
	<g id="XMLID_73_">
		<path class="st1" d="M-379.9,301.4c0.2,2.5,2.3,4.5,4.9,4.5s4.7-2,4.9-4.5H-379.9z"/>
	</g>
	<rect id="XMLID_30_" x="-378.9" y="297.5" class="st1" width="2" height="2"/>
	<rect id="XMLID_68_" x="-373.1" y="297.5" class="st1" width="2" height="2"/>
</g>
</svg>
