<?xml version="1.0" encoding="utf-8"?>
<!-- Generator: Adobe Illustrator 19.0.0, SVG Export Plug-In . SVG Version: 6.00 Build 0)  -->
<svg version="1.1" id="Calque_1" xmlns="http://www.w3.org/2000/svg" xmlns:xlink="http://www.w3.org/1999/xlink" x="0px" y="0px"
	 viewBox="-387 289 24 24" style="enable-background:new -387 289 24 24;" xml:space="preserve">
<style type="text/css">
	.st0{fill:none;}
	.st1{fill:#FFFFFF;}
</style>
<path class="st0" d="M-387,289h24v24h-24V289z"/>
<g>
	<path class="st1" d="M-375,295.8l1.8,2.6l0.4,0.5l0.6,0.2l3,0.9l-1.9,2.5l-0.4,0.5l0,0.6l0.1,3.2l-3-1.1l-0.6-0.2l-0.6,0.2l-3,1.1
		l0.1-3.2l0-0.6l-0.4-0.5l-1.9-2.5l3-0.9l0.6-0.2l0.4-0.5L-375,295.8 M-375,292.6l-3.3,4.8l-5.6,1.6l3.5,4.6l-0.2,5.8l5.5-1.9
		l5.5,1.9l-0.2-5.8l3.5-4.6l-5.6-1.6L-375,292.6z"/>
</g>
</svg>
